<?xml version="1.0" encoding="iso-8859-1"?>
<!-- Uploaded to: SVG Repo, www.svgrepo.com, Generator: SVG Repo Mixer Tools -->
<!DOCTYPE svg PUBLIC "-//W3C//DTD SVG 1.1//EN" "http://www.w3.org/Graphics/SVG/1.1/DTD/svg11.dtd">
<svg fill="#000000" height="800px" width="800px" version="1.1" id="Capa_1" xmlns="http://www.w3.org/2000/svg" xmlns:xlink="http://www.w3.org/1999/xlink" 
	 viewBox="0 0 290.467 290.467" xml:space="preserve">
<g>
	<path d="M269.127,3.661L3.662,269.128c-4.882,4.882-4.882,12.796,0,17.678l0,0c4.882,4.882,12.796,4.882,17.678,0L286.805,21.339
		c4.882-4.882,4.882-12.796,0-17.678v0C281.924-1.22,274.009-1.22,269.127,3.661z"/>
	<path d="M199.922,17.229H31.79c-13.315,0-24.108,10.794-24.108,24.108v167.164L199.922,17.229z M65.282,42.335
		c18.477,0,33.455,14.978,33.455,33.455c0,18.477-14.978,33.455-33.455,33.455c-18.642,0-33.455-15.17-33.455-33.455
		C31.827,57.507,46.641,42.335,65.282,42.335z"/>
	<path d="M214.566,150.252c10.709,21.471,27.891,55.918,38.082,76.348c3.828,7.674-1.756,16.689-10.332,16.689h-68.259
		l-17.929-34.895l-18.293,18.2l0,0c3.828,7.674-1.753,16.694-10.329,16.694h-6.45l-30.1,29.949h167.721
		c13.315,0,24.108-10.794,24.108-24.108V82.376L214.566,150.252z"/>
</g>
</svg>